<?xml version="1.0" encoding="UTF-8" standalone="no"?>
<svg
   xmlns:dc="http://purl.org/dc/elements/1.1/"
   xmlns:cc="http://creativecommons.org/ns#"
   xmlns:rdf="http://www.w3.org/1999/02/22-rdf-syntax-ns#"
   xmlns:svg="http://www.w3.org/2000/svg"
   xmlns="http://www.w3.org/2000/svg"
   viewBox="0 0 1866.6667 1306.6667"
   height="1306.6667"
   width="1866.6667"
   xml:space="preserve"
   id="svg2"
   version="1.1"><metadata
     id="metadata8"><rdf:RDF><cc:Work
         rdf:about=""><dc:format>image/svg+xml</dc:format><dc:type
           rdf:resource="http://purl.org/dc/dcmitype/StillImage" /></cc:Work></rdf:RDF></metadata><defs
     id="defs6"><clipPath
       id="clipPath18"
       clipPathUnits="userSpaceOnUse"><path
         id="path16"
         d="M 0,0 V 5133 H 3663 V 0 Z" /></clipPath><pattern
       id="pattern104"
       height="513.231"
       width="366.236"
       y="0"
       x="0"
       patternUnits="userSpaceOnUse"
       patternTransform="matrix(10,0,0,10,0,4668)"><g
         id="g102"
         transform="scale(0.1)"><g
           id="g100"><g
             id="g98"
             clip-path="url(#clipPath18)"><path
               id="path20"
               style="fill:#c3b4ae;fill-opacity:1;fill-rule:nonzero;stroke:none"
               d="m 3578.03,54.7539 c 34.38,146.4061 -199.21,255.7771 -360,233.5591 -160.78,-22.219 -214.38,-29.625 -204.78,-99.125 9.61,-69.5 116.8,-54.684 243.2,-178.8716 126.4,-124.1834 287.19,-101.9648 321.58,44.4375" /><path
               id="path22"
               style="fill:#f4d193;fill-opacity:1;fill-rule:nonzero;stroke:none"
               d="m 2049.43,419.266 c 88.79,-118.387 406.96,0 554.95,147.988 147.99,147.984 369.96,110.988 332.97,221.976 -37,110.993 -221.98,73.997 -480.96,37 -258.97,-37 -517.95,-258.976 -406.96,-406.964" /><path
               id="path24"
               style="fill:none;stroke:#81b96e;stroke-opacity:1;stroke-width:50;stroke-linecap:round;stroke-linejoin:round;stroke-miterlimit:10;stroke-dasharray:none"
               d="M 2567.38,715.238 C 2382.4,678.242 2086.43,419.266 1901.44,345.273" /><path
               id="path26"
               style="fill:none;stroke:#77533b;stroke-opacity:1;stroke-width:50;stroke-linecap:round;stroke-linejoin:round;stroke-miterlimit:10;stroke-dasharray:none"
               d="M 4701.9,19.7266 C 4400.62,113.336 3782.65,-93.0352 3492.9,-275.07 3203.14,-457.105 2783.92,-336.566 2783.92,-336.566" /><path
               id="path28"
               style="fill:#77533b;fill-opacity:1;fill-rule:nonzero;stroke:none"
               d="m 3857.38,-91.5313 c -67.78,63.5547 -166.54,65.3086 -249.84,96.05864 -45.52,16.80076 -88.45,45.14066 -131.75,67.01956 -35.76,18.0703 -71.81,36.5311 -109.36,50.6481 -18.18,6.836 -25.96,-22.2302 -7.99,-28.9841 80.11,-30.1171 151.45,-79.2539 229.7,-113.039 80.06,-34.5703 181.59,-30.7032 247.99,-92.9569 14.12,-13.238 35.42,7.972 21.25,21.2537 l 0,0" /><path
               id="path30"
               style="fill:none;stroke:#77533b;stroke-opacity:1;stroke-width:50;stroke-linecap:round;stroke-linejoin:round;stroke-miterlimit:10;stroke-dasharray:none"
               d="M 1039.53,19.7266 C 738.254,113.336 120.293,-93.0352 -169.465,-275.07 c -289.754,-182.035 -708.98,-61.496 -708.98,-61.496" /><path
               id="path32"
               style="fill:#77533b;fill-opacity:1;fill-rule:nonzero;stroke:none"
               d="M 195.02,-91.5313 C 127.234,-27.9766 28.4766,-26.2227 -54.8242,4.52734 -100.344,21.3281 -143.277,49.668 -186.574,71.5469 c -35.754,18.0703 -71.809,36.5311 -109.356,50.6481 -18.179,6.836 -25.961,-22.2302 -7.992,-28.9841 80.109,-30.1171 151.453,-79.2539 229.6954,-113.039 80.05863,-34.5703 181.5936,-30.7032 247.9926,-92.9569 14.125,-13.238 35.422,7.972 21.254,21.2537 l 0,0" /><path
               id="path34"
               style="fill:#db412f;fill-opacity:1;fill-rule:nonzero;stroke:none"
               d="m 839.094,710.586 c -0.004,-33.859 -27.453,-61.301 -61.313,-61.297 -33.859,0.004 -61.301,27.457 -61.297,61.313 0.004,33.859 27.457,61.3 61.313,61.296 33.859,-0.003 61.301,-27.453 61.297,-61.312" /><path
               id="path36"
               style="fill:#db412f;fill-opacity:1;fill-rule:nonzero;stroke:none"
               d="m 609.781,810.523 c -0.004,-33.859 -27.453,-61.3 -61.312,-61.296 -33.856,0.003 -61.301,27.453 -61.297,61.312 0.008,33.856 27.457,61.301 61.312,61.297 33.86,-0.008 61.305,-27.457 61.297,-61.313" /><path
               id="path38"
               style="fill:#77533b;fill-opacity:1;fill-rule:nonzero;stroke:none"
               d="m 810.715,737.836 c 0.558,66.18 9.765,132.012 11.656,198.168 1.66,57.996 -0.535,123.016 -32.094,173.716 -6.211,9.98 -18.183,10.47 -26.746,3.45 -96.758,-79.3 -162.629,-188.701 -234.297,-289.502 -12.757,-17.941 16.793,-34.93 29.407,-17.191 70.113,98.609 134.324,205.033 228.972,282.613 -8.914,1.15 -17.832,2.3 -26.746,3.45 31.832,-51.14 29,-118.036 26.801,-175.989 -2.27,-59.645 -10.508,-118.996 -11.012,-178.711 -0.183,-21.969 33.875,-21.957 34.059,-0.004 l 0,0" /><path
               id="path40"
               style="fill:#c3b4ae;fill-opacity:1;fill-rule:nonzero;stroke:none"
               d="m 1379.71,1961.23 c 47.03,-111.47 -175.92,-205.52 -337.89,-195.06 -161.984,10.45 -215.976,13.94 -212.492,67.93 3.485,53.99 111.473,47.02 226.432,148.04 114.95,101.01 276.93,90.56 323.95,-20.91" /><path
               id="path42"
               style="fill:#c3b4ae;fill-opacity:1;fill-rule:nonzero;stroke:none"
               d="m 1746.84,2620.91 c 34.39,146.41 -199.2,255.78 -359.99,233.56 -160.79,-22.22 -214.38,-29.63 -204.78,-99.13 9.61,-69.5 116.8,-54.68 243.2,-178.87 126.4,-124.18 287.19,-101.96 321.57,44.44" /><path
               id="path44"
               style="fill:#f4d193;fill-opacity:1;fill-rule:nonzero;stroke:none"
               d="m 218.25,2985.42 c 88.789,-118.39 406.961,0 554.949,147.99 147.985,147.98 369.961,110.99 332.971,221.98 -37,110.99 -221.982,73.99 -480.959,36.99 C 366.234,3355.39 107.258,3133.41 218.25,2985.42" /><path
               id="path46"
               style="fill:#cfe1c4;fill-opacity:1;fill-rule:nonzero;stroke:none"
               d="m 3206.69,1877.52 c -14.09,107.92 -164.56,209.35 -308.37,139.82 -78.05,-37.75 -144.83,112.08 -207.82,73.6 -87.21,-53.29 -45.13,-96.12 -76.29,-129.49 -37.83,-40.52 -118.73,23.67 -185.06,-65.41 -64.18,-86.18 20.63,-130.78 121.82,-148.52 85.49,-15 85.01,-116.36 168.15,-140.94 95.08,-28.11 150.01,65.13 208.19,9.92 81.3,-77.15 300.33,100.62 279.38,261.02" /><path
               id="path48"
               style="fill:none;stroke:#81b96e;stroke-opacity:1;stroke-width:50;stroke-linecap:round;stroke-linejoin:round;stroke-miterlimit:10;stroke-dasharray:none"
               d="M 736.199,3281.39 C 551.219,3244.4 255.246,2985.42 70.2617,2911.43" /><path
               id="path50"
               style="fill:none;stroke:#77533b;stroke-opacity:1;stroke-width:50;stroke-linecap:round;stroke-linejoin:round;stroke-miterlimit:10;stroke-dasharray:none"
               d="m 2870.71,2585.88 c -301.27,93.61 -919.24,-112.76 -1208.99,-294.8 -289.76,-182.03 -708.986,-61.49 -708.986,-61.49" /><path
               id="path52"
               style="fill:#77533b;fill-opacity:1;fill-rule:nonzero;stroke:none"
               d="m 2026.2,2474.63 c -67.78,63.55 -166.54,65.3 -249.84,96.05 -45.52,16.8 -88.46,45.14 -131.76,67.02 -35.75,18.07 -71.8,36.53 -109.35,50.65 -18.18,6.83 -25.96,-22.23 -7.99,-28.98 80.11,-30.12 151.45,-79.26 229.7,-113.04 80.05,-34.57 181.59,-30.71 247.99,-92.96 14.12,-13.24 35.42,7.97 21.25,21.26 l 0,0" /><path
               id="path54"
               style="fill:#77533b;fill-opacity:1;fill-rule:nonzero;stroke:none"
               d="m 1654.13,2304.06 c -91.67,-45.39 -109.13,-151.22 -171.75,-223.43 -39.35,-45.37 -101.83,-70.95 -153.2,-100.31 -58.98,-33.71 -119.54,-61.82 -185.59,-78.56 -18.78,-4.76 -10.81,-33.75 7.99,-28.98 62.28,15.78 120.03,41.33 176.17,72.25 53.15,29.27 113.01,57 158.78,97.09 76.55,67.05 87.39,188.76 182.77,235.99 17.37,8.6 2.14,34.52 -15.17,25.95 l 0,0" /><path
               id="path56"
               style="fill:#db412f;fill-opacity:1;fill-rule:nonzero;stroke:none"
               d="m 795.039,2191.14 c 7.078,-29.03 -10.715,-58.31 -39.746,-65.38 -29.031,-7.08 -58.305,10.71 -65.383,39.74 -7.078,29.03 10.719,58.31 39.746,65.39 29.032,7.07 58.305,-10.72 65.383,-39.75" /><path
               id="path58"
               style="fill:#db412f;fill-opacity:1;fill-rule:nonzero;stroke:none"
               d="m 2670.28,3276.74 c -0.01,-33.86 -27.46,-61.3 -61.32,-61.3 -33.86,0.01 -61.3,27.46 -61.29,61.32 0,33.86 27.45,61.3 61.31,61.29 33.86,0 61.3,-27.45 61.3,-61.31" /><path
               id="path60"
               style="fill:none;stroke:#77533b;stroke-opacity:1;stroke-width:50;stroke-linecap:round;stroke-linejoin:round;stroke-miterlimit:10;stroke-dasharray:none"
               d="m 1070.26,2204.41 c -56.7,29.49 -108.405,89.28 -150.424,134.73" /><path
               id="path62"
               style="fill:none;stroke:#77533b;stroke-opacity:1;stroke-width:50;stroke-linecap:round;stroke-linejoin:round;stroke-miterlimit:10;stroke-dasharray:none"
               d="m 955.199,2227.1 c -110.683,22.51 -138.222,-24.43 -199.621,-51.77" /><path
               id="path64"
               style="fill:#db412f;fill-opacity:1;fill-rule:nonzero;stroke:none"
               d="m 979.668,2347.54 c 7.078,-29.03 -10.719,-58.31 -39.75,-65.39 -29.031,-7.07 -58.305,10.72 -65.383,39.75 -7.078,29.03 10.719,58.31 39.75,65.38 29.031,7.08 58.301,-10.71 65.383,-39.74" /><path
               id="path66"
               style="fill:#db412f;fill-opacity:1;fill-rule:nonzero;stroke:none"
               d="m 2440.96,3376.68 c 0,-33.86 -27.45,-61.3 -61.31,-61.3 -33.86,0 -61.3,27.46 -61.3,61.31 0.01,33.86 27.46,61.3 61.32,61.3 33.86,-0.01 61.3,-27.46 61.29,-61.31" /><path
               id="path68"
               style="fill:#77533b;fill-opacity:1;fill-rule:nonzero;stroke:none"
               d="m 2641.9,3303.99 c 0.55,66.18 9.76,132.01 11.65,198.17 1.66,57.99 -0.53,123.02 -32.09,173.72 -6.21,9.98 -18.19,10.46 -26.75,3.45 -96.75,-79.31 -162.63,-188.71 -234.29,-289.51 -12.76,-17.94 16.79,-34.93 29.4,-17.19 70.11,98.61 134.33,205.04 228.97,282.61 -8.91,1.15 -17.83,2.3 -26.74,3.45 31.83,-51.14 29,-118.03 26.8,-175.98 -2.27,-59.65 -10.51,-119 -11.01,-178.71 -0.19,-21.97 33.87,-21.96 34.06,-0.01 l 0,0" /><path
               id="path70"
               style="fill:none;stroke:#77533b;stroke-opacity:1;stroke-width:50;stroke-linecap:round;stroke-linejoin:round;stroke-miterlimit:10;stroke-dasharray:none"
               d="m 2725.67,1819.03 c 312.76,-40.21 469.38,-32.33 716.95,79.97" /><path
               id="path72"
               style="fill:#c3b4ae;fill-opacity:1;fill-rule:nonzero;stroke:none"
               d="m 3210.89,4527.38 c 47.03,-111.47 -175.92,-205.51 -337.89,-195.06 -161.98,10.46 -215.98,13.94 -212.49,67.93 3.48,54 111.47,47.03 226.43,148.04 114.95,101.02 276.93,90.56 323.95,-20.91" /><path
               id="path74"
               style="fill:#c3b4ae;fill-opacity:1;fill-rule:nonzero;stroke:none"
               d="m 3578.03,5187.07 c 34.38,146.4 -199.21,255.77 -360,233.55 -160.78,-22.22 -214.38,-29.62 -204.78,-99.12 9.61,-69.5 116.8,-54.69 243.2,-178.87 126.4,-124.19 287.19,-101.97 321.58,44.44" /><path
               id="path76"
               style="fill:none;stroke:#77533b;stroke-opacity:1;stroke-width:50;stroke-linecap:round;stroke-linejoin:round;stroke-miterlimit:10;stroke-dasharray:none"
               d="m 4701.9,5152.04 c -301.28,93.61 -919.25,-112.77 -1209,-294.8 -289.76,-182.03 -708.98,-61.5 -708.98,-61.5" /><path
               id="path78"
               style="fill:#77533b;fill-opacity:1;fill-rule:nonzero;stroke:none"
               d="m 3857.38,5040.78 c -67.78,63.55 -166.54,65.3 -249.84,96.06 -45.52,16.8 -88.45,45.14 -131.75,67.02 -35.76,18.07 -71.81,36.53 -109.36,50.64 -18.18,6.84 -25.96,-22.23 -7.99,-28.98 80.11,-30.12 151.45,-79.25 229.7,-113.04 80.06,-34.57 181.59,-30.7 247.99,-92.95 14.12,-13.25 35.42,7.97 21.25,21.25 l 0,0" /><path
               id="path80"
               style="fill:#77533b;fill-opacity:1;fill-rule:nonzero;stroke:none"
               d="m 3485.31,4870.22 c -91.67,-45.39 -109.13,-151.23 -171.75,-223.43 -39.35,-45.37 -101.83,-70.96 -153.2,-100.32 -58.97,-33.7 -119.54,-61.81 -185.59,-78.55 -18.78,-4.76 -10.81,-33.75 7.99,-28.99 62.28,15.79 120.03,41.33 176.18,72.25 53.14,29.27 113,57 158.77,97.09 76.55,67.05 87.39,188.77 182.77,235.99 17.38,8.6 2.14,34.53 -15.17,25.96 l 0,0" /><path
               id="path82"
               style="fill:#db412f;fill-opacity:1;fill-rule:nonzero;stroke:none"
               d="m 2626.22,4757.29 c 7.08,-29.03 -10.72,-58.3 -39.75,-65.38 -29.03,-7.08 -58.3,10.72 -65.38,39.75 -7.08,29.03 10.72,58.3 39.75,65.38 29.03,7.08 58.3,-10.72 65.38,-39.75" /><path
               id="path84"
               style="fill:none;stroke:#77533b;stroke-opacity:1;stroke-width:50;stroke-linecap:round;stroke-linejoin:round;stroke-miterlimit:10;stroke-dasharray:none"
               d="m 2901.44,4770.57 c -56.7,29.49 -108.4,89.28 -150.42,134.72" /><path
               id="path86"
               style="fill:none;stroke:#77533b;stroke-opacity:1;stroke-width:50;stroke-linecap:round;stroke-linejoin:round;stroke-miterlimit:10;stroke-dasharray:none"
               d="m 2786.38,4793.25 c -110.68,22.52 -138.22,-24.42 -199.62,-51.77" /><path
               id="path88"
               style="fill:#db412f;fill-opacity:1;fill-rule:nonzero;stroke:none"
               d="m 2810.85,4913.69 c 7.08,-29.03 -10.72,-58.3 -39.75,-65.38 -29.03,-7.08 -58.3,10.72 -65.38,39.75 -7.08,29.03 10.71,58.3 39.74,65.38 29.04,7.08 58.31,-10.72 65.39,-39.75" /><path
               id="path90"
               style="fill:#cfe1c4;fill-opacity:1;fill-rule:nonzero;stroke:none"
               d="m 1375.51,4443.68 c -14.09,107.92 -164.56,209.34 -308.37,139.81 -78.054,-37.74 -144.827,112.09 -207.824,73.6 -87.211,-53.28 -45.128,-96.11 -76.289,-129.49 -37.824,-40.51 -118.726,23.68 -185.062,-65.41 -64.172,-86.18 20.637,-130.77 121.82,-148.52 85.496,-15 85.016,-116.36 168.156,-140.93 95.082,-28.11 150.009,65.12 208.189,9.91 81.29,-77.14 300.33,100.63 279.38,261.03" /><path
               id="path92"
               style="fill:none;stroke:#77533b;stroke-opacity:1;stroke-width:50;stroke-linecap:round;stroke-linejoin:round;stroke-miterlimit:10;stroke-dasharray:none"
               d="m 1039.53,5152.04 c -301.276,93.61 -919.237,-112.77 -1208.995,-294.8 -289.754,-182.03 -708.98,-61.5 -708.98,-61.5" /><path
               id="path94"
               style="fill:#77533b;fill-opacity:1;fill-rule:nonzero;stroke:none"
               d="m 195.02,5040.78 c -67.786,63.55 -166.5434,65.3 -249.8442,96.06 -45.5198,16.8 -88.4528,45.14 -131.7498,67.02 -35.754,18.07 -71.809,36.53 -109.356,50.64 -18.179,6.84 -25.961,-22.23 -7.992,-28.98 80.109,-30.12 151.453,-79.25 229.6954,-113.04 80.05863,-34.57 181.5936,-30.7 247.9926,-92.95 14.125,-13.25 35.422,7.97 21.254,21.25 l 0,0" /><path
               id="path96"
               style="fill:none;stroke:#77533b;stroke-opacity:1;stroke-width:50;stroke-linecap:round;stroke-linejoin:round;stroke-miterlimit:10;stroke-dasharray:none"
               d="m 894.488,4385.18 c 312.762,-40.21 469.382,-32.33 716.952,79.98" /></g></g></g></pattern></defs><g
     transform="matrix(1.3333333,0,0,-1.3333333,0,1306.6667)"
     id="g10"><g
       transform="scale(0.1)"
       id="g12"><path
         id="path14"
         style="fill:#7e8d95;fill-opacity:1;fill-rule:nonzero;stroke:none"
         d="M 14000,0 H 0 V 9800 H 14000 V 0" /><path
         id="path106"
         style="fill:url(#pattern104);fill-opacity:1;fill-rule:nonzero;stroke:none"
         d="M 14000,0 H 0 V 9800 H 14000 V 0" /></g></g></svg>